<svg xmlns="http://www.w3.org/2000/svg" width="18.387" height="18.331" viewBox="0 0 18.387 18.331"><defs><style>.a{fill:#040f4f;}</style></defs><g transform="translate(0 568.685)"><path class="a" d="M7.882-568.637c-.071.032-.7.384-1.393.774s-1.27.716-1.28.716a1.034,1.034,0,0,1-.019-.274,1.336,1.336,0,0,0-.045-.387c-.081-.19-.158-.21-.906-.21-.719,0-.838.023-.916.171a5.837,5.837,0,0,0-.045.938l-.006.867-1.522.861c-.838.471-1.554.887-1.593.922-.139.126-.158.209-.158.712,0,.455,0,.484.077.593.142.206.216.222,1,.222h.7v7.56l.077.161a.893.893,0,0,0,.438.432c.145.065.19.068,4.381.068,3.375,0,4.23-.01,4.217-.039a5.451,5.451,0,0,1-.3-.848,4.6,4.6,0,0,1,.39-3.234,4.394,4.394,0,0,1,.819-1.135,4.657,4.657,0,0,1,2.492-1.3l.087-.019v-1.644h.693c.777,0,.816-.01.974-.216.087-.113.09-.129.1-.587.016-.751.525-.377-4.017-2.943-2.7-1.531-3.914-2.2-4-2.205A.465.465,0,0,0,7.882-568.637Z"/><path class="a" d="M367.447-294.762a3.31,3.31,0,0,0-2.763,2.473,2.606,2.606,0,0,0-.087.845c0,.838.074,1.061.816,2.389,1.119,2.012,2.037,3.575,2.15,3.662a.566.566,0,0,0,.812-.177c.245-.387,2.324-4.062,2.531-4.471a3.238,3.238,0,0,0-.01-2.843,3.061,3.061,0,0,0-.658-.932A3.318,3.318,0,0,0,367.447-294.762Zm.79,1.95a1.439,1.439,0,0,1,1.064,1.228,1.449,1.449,0,0,1-.426,1.132,1.393,1.393,0,0,1-2.263-.409.96.96,0,0,1-.116-.583.961.961,0,0,1,.116-.584A1.408,1.408,0,0,1,368.237-292.812Z" transform="translate(-352.843 -265.065)"/></g></svg>