<svg xmlns="http://www.w3.org/2000/svg" width="19.747" height="15.302" viewBox="0 0 19.747 15.302"><defs><style>.a{fill:#040f4f;}</style></defs><g transform="translate(-0.14 441.9)"><path class="a" d="M7.531-440.885c-1.51.88-1.739,1.025-1.791,1.129s-.062.475-.062,6.052v5.934H3.218v-2.581l.166-.062a1.453,1.453,0,0,0,.811-.821c.076-.187.08-.222.08-1.42,0-1.4,0-1.427-.274-1.794a1.387,1.387,0,0,0-1.164-.572,1.387,1.387,0,0,0-1.164.572c-.27.367-.274.4-.274,1.794,0,1.2,0,1.233.08,1.42a1.449,1.449,0,0,0,.814.821l.163.062v2.581H1.334a4.11,4.11,0,0,0-1.161.048,1.77,1.77,0,0,0-.031.578l.01.534,9.817.01c7.23,0,9.828,0,9.863-.031.073-.059.073-10.164,0-10.334-.042-.1-.249-.232-1.808-1.143-1.711-1-1.767-1.029-1.919-1.015a7.4,7.4,0,0,0-1.531.814l-1.379.8v-1.06c0-.942-.007-1.077-.062-1.185s-.281-.249-1.791-1.129C9.7-441.848,9.6-441.9,9.436-441.9S9.177-441.848,7.531-440.885Zm1.257,3.17c.007.544,0,.714-.035.738a7.048,7.048,0,0,1-1.406-.014,7.4,7.4,0,0,1-.021-1.393c.021-.049.107-.055.738-.049l.714.01Zm2.771-.683a6.129,6.129,0,0,1,.007,1.382c-.035.062-.08.066-.727.066s-.693,0-.727-.066a6.129,6.129,0,0,1,.007-1.382A5.9,5.9,0,0,1,11.56-438.4Zm-2.771,3.488c.007.544,0,.714-.035.738a7.048,7.048,0,0,1-1.406-.014,7.4,7.4,0,0,1-.021-1.393c.021-.049.107-.055.738-.049l.714.01Zm2.771-.682a6.129,6.129,0,0,1,.007,1.382c-.035.062-.08.066-.727.066s-.693,0-.727-.066a6.129,6.129,0,0,1,.007-1.382A5.9,5.9,0,0,1,11.56-435.592Zm3.88,0a5.621,5.621,0,0,1,0,1.406,2.433,2.433,0,0,1-.727.042h-.686l-.035-.09a6.6,6.6,0,0,1,0-1.334c.035-.062.08-.066.721-.066A2.433,2.433,0,0,1,15.44-435.592Zm2.806,0a5.62,5.62,0,0,1,0,1.406,2.433,2.433,0,0,1-.727.042h-.686l-.035-.09a6.6,6.6,0,0,1,0-1.334c.035-.062.08-.066.721-.066A2.433,2.433,0,0,1,18.246-435.592ZM8.754-432.82a2.432,2.432,0,0,1,.042.727c0,.641,0,.686-.066.721a6.6,6.6,0,0,1-1.334,0l-.09-.035v-.686a2.432,2.432,0,0,1,.042-.727,2.428,2.428,0,0,1,.7-.042A2.428,2.428,0,0,1,8.754-432.82Zm2.792.014c.045.045.055.159.055.707,0,.637,0,.655-.076.707s-.191.055-.686.055-.624-.01-.686-.055-.076-.069-.076-.693a3.981,3.981,0,0,1,.035-.71c.035-.062.08-.066.71-.066C11.387-432.862,11.5-432.852,11.546-432.807Zm3.894-.014a6.417,6.417,0,0,1,.007,1.413c-.028.042-.152.055-.689.062-.873.014-.807.08-.793-.793.007-.537.021-.662.062-.689A6.414,6.414,0,0,1,15.44-432.82Zm2.806,0a6.417,6.417,0,0,1,.007,1.413c-.028.042-.152.055-.689.062-.873.014-.807.08-.793-.793.007-.537.021-.662.062-.689A6.414,6.414,0,0,1,18.246-432.82Zm-9.492,2.806a2.433,2.433,0,0,1,.042.727c0,.641,0,.686-.066.721a6.605,6.605,0,0,1-1.334,0l-.09-.035v-.686a2.433,2.433,0,0,1,.042-.727A5.62,5.62,0,0,1,8.754-430.014Zm2.792.014c.045.045.055.159.055.707,0,.637,0,.655-.076.707a3.965,3.965,0,0,1-1.372,0c-.073-.052-.076-.069-.076-.693a3.982,3.982,0,0,1,.035-.71c.035-.062.08-.066.71-.066C11.387-430.056,11.5-430.046,11.546-430Zm3.894-.014a6.417,6.417,0,0,1,.007,1.413c-.028.042-.152.055-.689.062-.873.014-.807.08-.793-.793.007-.537.021-.662.062-.689A6.418,6.418,0,0,1,15.44-430.014Zm2.806,0a6.417,6.417,0,0,1,.007,1.413c-.028.042-.152.055-.689.062-.873.014-.807.08-.793-.793.007-.537.021-.662.062-.689A6.418,6.418,0,0,1,18.246-430.014Z" transform="translate(0)"/></g></svg>