<svg xmlns="http://www.w3.org/2000/svg" width="17.89" height="17.887" viewBox="0 0 17.89 17.887"><defs><style>.a{fill:#b4b4b4;}</style></defs><g transform="translate(0 479.913)"><path class="a" d="M7.771-479.856a9.051,9.051,0,0,0-2.8.854A8.822,8.822,0,0,0,.928-474.97a8.569,8.569,0,0,0-.928,4,8.25,8.25,0,0,0,.451,2.851,8.965,8.965,0,0,0,5.643,5.643,8.253,8.253,0,0,0,2.851.451,8.2,8.2,0,0,0,2.851-.451,8.948,8.948,0,0,0,5.643-5.643,8.329,8.329,0,0,0,.451-2.851,8.341,8.341,0,0,0-.447-2.844,8.966,8.966,0,0,0-7.354-6.045A12.351,12.351,0,0,0,7.771-479.856Zm2.534,2.337a6.718,6.718,0,0,1,5.2,5.263,4.917,4.917,0,0,1,.089,1.286,4.917,4.917,0,0,1-.089,1.286,6.731,6.731,0,0,1-4.476,5.065,5.347,5.347,0,0,1-2.087.3,4.918,4.918,0,0,1-1.286-.089,6.724,6.724,0,0,1-5.278-5.278,4.917,4.917,0,0,1-.089-1.286,4.917,4.917,0,0,1,.089-1.286,6.718,6.718,0,0,1,5.259-5.27,4.7,4.7,0,0,1,1.435-.1A5.028,5.028,0,0,1,10.305-477.519Z" transform="translate(0 0)"/><path class="a" d="M123.558-359.922a4.5,4.5,0,0,0-3.421,3.276,5.269,5.269,0,0,0-.048,2.009,4.47,4.47,0,0,0,3.593,3.526,6.129,6.129,0,0,0,1.61,0,4.506,4.506,0,0,0,2.177-1.058l.2-.186-.809-.809-.805-.809-.179.157a2.234,2.234,0,0,1-2.054.4,2.234,2.234,0,0,1-1.446-1.442,2.285,2.285,0,0,1,.209-1.8,2.682,2.682,0,0,1,.719-.731,2.222,2.222,0,0,1,2.624.2l.119.116.8-.8a9.492,9.492,0,0,0,.79-.839,2.172,2.172,0,0,0-.283-.265,4.5,4.5,0,0,0-1.968-.943A5.409,5.409,0,0,0,123.558-359.922Z" transform="translate(-115.541 -115.444)"/></g></svg>