<svg xmlns="http://www.w3.org/2000/svg" width="19.561" height="11.927" viewBox="0 0 19.561 11.927"><defs><style>.a{fill:#040f4f;}</style></defs><g transform="translate(0 300)"><path class="a" d="M18.2-299.964c.028.08,8.651,7.729,8.766,7.781a.812.812,0,0,0,.58,0c.115-.048,8.739-7.7,8.766-7.781.008-.02-3.837-.036-9.057-.036C22-300,18.192-299.984,18.2-299.964Z" transform="translate(-17.476)"/><path class="a" d="M0-277.525c0,2.91.012,5.292.032,5.288.044,0,6.142-5.021,6.154-5.065s-6.067-5.467-6.15-5.5C.016-282.808,0-280.6,0-277.525Z" transform="translate(0 -16.516)"/><path class="a" d="M339.457-280.265c-1.686,1.5-3.061,2.747-3.057,2.771.012.044,6.111,5.065,6.158,5.069.016,0,.028-2.381.028-5.288s-.012-5.288-.028-5.288S341.147-281.768,339.457-280.265Z" transform="translate(-323.025 -16.324)"/><path class="a" d="M21.189-126.176c-1.7,1.392-3.089,2.544-3.089,2.56s4.075.032,9.061.032,9.065-.012,9.061-.032c0-.04-6.15-5.077-6.2-5.077-.02,0-.465.386-.994.855a10.826,10.826,0,0,1-1.173.966,1.509,1.509,0,0,1-1.392,0,11.118,11.118,0,0,1-1.177-.966c-.525-.469-.97-.859-.982-.863S22.887-127.571,21.189-126.176Z" transform="translate(-17.38 -164.489)"/></g></svg>