<svg xmlns="http://www.w3.org/2000/svg" width="15.521" height="16.8" viewBox="0 0 15.521 16.8"><defs><style>.a{fill:#040f4f;}</style></defs><g transform="translate(-0.176 600)"><path class="a" d="M.86-599.944a1.055,1.055,0,0,0-.611.614l-.064.157-.008,7.482c0,4.924,0,7.533.022,7.631a1.06,1.06,0,0,0,.583.785l.16.076H12.6l.135-.067a1.059,1.059,0,0,0,.6-.883,1.15,1.15,0,0,0,.006-.213,1.685,1.685,0,0,0-.165.059.733.733,0,0,1-.594-.034,12.878,12.878,0,0,1-1.031-.922c-1.02-.967-1.045-1-1.048-1.331a.608.608,0,0,1,.073-.339.753.753,0,0,1,.642-.426c.3-.023.412.045,1.009.616.28.266.546.516.591.552l.084.067.221-.221.221-.221v-4.694l0-4.694-2.158-2.026L9.024-600H5.011A31.729,31.729,0,0,0,.86-599.944Zm10,2.438,1.5,1.415-1.267.008c-.776,0-1.3-.006-1.368-.022a.853.853,0,0,1-.56-.575,12.65,12.65,0,0,1-.031-1.269v-1.16l.106.1C9.307-598.963,10.033-598.285,10.859-597.506Zm-5.3,5.88a1.163,1.163,0,0,1,.269.2.9.9,0,0,1-.224,1.418.638.638,0,0,1-.418.084.686.686,0,0,1-.387-.064,1.027,1.027,0,0,1-.415-.4.631.631,0,0,1-.081-.4.684.684,0,0,1,.084-.418.95.95,0,0,1,.5-.44A1.035,1.035,0,0,1,5.56-591.626Zm2.379-.048a.3.3,0,0,1,.115.269c-.042.109-2.191,3.31-2.236,3.326a.244.244,0,0,1-.272-.067.181.181,0,0,1-.073-.177c.014-.1,2.107-3.265,2.214-3.338A.235.235,0,0,1,7.939-591.674Zm.67,1.85a.986.986,0,0,1,.432.291.919.919,0,0,1,.118.942,1.034,1.034,0,0,1-.462.454,1.036,1.036,0,0,1-.712,0,1.034,1.034,0,0,1-.462-.454.718.718,0,0,1-.076-.367.654.654,0,0,1,.09-.4A.875.875,0,0,1,8.609-589.824Z" transform="translate(0)"/><path class="a" d="M164.589-285.913a.41.41,0,0,0,.146.7.394.394,0,0,0,.387-.09.4.4,0,0,0,0-.611.3.3,0,0,0-.266-.087A.3.3,0,0,0,164.589-285.913Z" transform="translate(-159.668 -305.2)"/><path class="a" d="M277.318-220.95a.413.413,0,0,0-.042.706.429.429,0,0,0,.586-.151A.42.42,0,0,0,277.5-221,.484.484,0,0,0,277.318-220.95Z" transform="translate(-269.16 -368.379)"/><path class="a" d="M389.03-168.5c-.272.275-.824.838-1.225,1.253l-.731.757-.558-.53c-1.065-1.017-.939-.911-1.084-.911a.234.234,0,0,0-.263.277c.008.126.011.129.807.894.44.42.849.8.908.849a.291.291,0,0,0,.384.017c.039-.034.513-.516,1.048-1.071l1.281-1.32c.3-.305.3-.314.3-.443a.24.24,0,0,0-.263-.269C389.526-169,389.507-168.986,389.03-168.5Z" transform="translate(-374.203 -418.922)"/></g></svg>