<svg xmlns="http://www.w3.org/2000/svg" width="16.72" height="13.726" viewBox="0 0 16.72 13.726"><defs><style>.a{fill:#040f4f;}</style></defs><g transform="translate(-0.176 468.126)"><path class="a" d="M.746-468.078a1.017,1.017,0,0,0-.546.569c-.021.076-.026,2.1-.023,6.312L.185-455l.079.135a1.214,1.214,0,0,0,.411.4,31.622,31.622,0,0,0,4.115.062c2.209,0,4.036,0,4.056-.009s.021-.047-.035-.153a2.489,2.489,0,0,1-.211-.722,18.8,18.8,0,0,1,.15-2.053,4.559,4.559,0,0,1,.3-.886A4.314,4.314,0,0,1,9.5-458.9c.059-.053.059-.123.059-4.382,0-2.93-.012-4.364-.032-4.441a.632.632,0,0,0-.311-.361C9.07-468.143.913-468.14.746-468.078Zm2.129,1.56c.047.041.053.1.053.613,0,.475-.009.572-.047.61a3.649,3.649,0,0,1-1.249,0c-.047-.041-.053-.1-.053-.613,0-.551,0-.566.065-.61A3.618,3.618,0,0,1,2.875-466.518Zm2.634.009c.056.056.059.1.059.6,0,.716.059.66-.689.66s-.689.056-.689-.66-.059-.66.689-.66C5.412-466.568,5.453-466.565,5.509-466.509Zm2.581,0c.056.056.059.1.059.607,0,.466-.006.554-.05.6s-.1.053-.625.053a1.8,1.8,0,0,1-.634-.041c-.053-.038-.056-.082-.056-.619s0-.581.056-.619a1.765,1.765,0,0,1,.625-.041C7.993-466.568,8.034-466.565,8.09-466.509Zm-5.2,2.7a5,5,0,0,1,0,1.22,5.488,5.488,0,0,1-1.279,0,5,5,0,0,1,0-1.22A5.488,5.488,0,0,1,2.893-463.8Zm2.628.029c.038.053.047.161.047.581s-.009.528-.047.581-.059.065-.634.065c-.507,0-.6-.006-.645-.05s-.053-.1-.053-.59c0-.466.006-.551.05-.6s.1-.053.642-.053C5.462-463.84,5.477-463.837,5.521-463.775Zm2.581-.018a3.417,3.417,0,0,1,0,1.2c-.038.041-.138.047-.639.047-.519,0-.6-.006-.636-.05s-.041-.173-.041-.6.009-.56.041-.6.117-.05.636-.05C7.964-463.84,8.064-463.834,8.1-463.793Zm-5.221,2.7c.038.038.047.135.047.613,0,.554,0,.569-.065.613s-.164.047-.61.047-.557-.009-.61-.047-.065-.059-.065-.6c0-.481.006-.569.05-.616s.1-.053.628-.053C2.743-461.141,2.843-461.136,2.881-461.095Zm2.628.012c.056.056.059.1.059.6,0,.716.059.66-.689.66s-.689.056-.689-.654c0-.437.009-.548.047-.6s.059-.065.631-.065C5.412-461.141,5.453-461.139,5.509-461.083Zm2.587-.009c.047.041.053.1.053.6,0,.727.059.669-.683.669a1.766,1.766,0,0,1-.625-.041c-.053-.038-.056-.082-.056-.619s0-.581.056-.619a1.789,1.789,0,0,1,.631-.041C7.961-461.141,8.049-461.136,8.1-461.092ZM4.409-458.37l.073.07v1.167a7.065,7.065,0,0,1-.038,1.241l-.038.073-.771.009c-.689.006-.78,0-.83-.041s-.053-.12-.053-1.258c0-1.244,0-1.273.117-1.314.023-.009.364-.018.757-.018l.713,0Zm2.525,0a5.446,5.446,0,0,1,.041,1.249,4.538,4.538,0,0,1-.047,1.255c-.044.065-.053.065-.818.065s-.774,0-.818-.065a4.538,4.538,0,0,1-.047-1.255c0-1.229,0-1.258.117-1.3.023-.009.378-.015.786-.012C6.846-458.428,6.893-458.425,6.934-458.373Z" transform="translate(0)"/><path class="a" d="M367.286-343.618c-.041.006-.153.026-.249.044a2.358,2.358,0,0,0-1.182.642,2.276,2.276,0,0,0-.672,1.772,2.161,2.161,0,0,0,.214.9,2.364,2.364,0,0,0,3.027,1.167,2.365,2.365,0,0,0,1.338-1.426,1.572,1.572,0,0,0,.088-.754,1.678,1.678,0,0,0-.082-.733,2.333,2.333,0,0,0-2.141-1.61A2.072,2.072,0,0,0,367.286-343.618Z" transform="translate(-354.298 -120.849)"/><path class="a" d="M323.332-168.825c-.07.035-.073.047-.082.387s0,.355.056.4a.262.262,0,0,0,.147.053c.062,0,.085.015.085.05,0,.094-.185,1.285-.2,1.305s-.246-.46-.528-1.05-.519-1.068-.531-1.068a3.6,3.6,0,0,0-.587.22,2.588,2.588,0,0,0-1.335,1.616,5.345,5.345,0,0,0-.135,1.05c-.032.437-.056.883-.05.988a1.082,1.082,0,0,0,.6.883l.138.067h5.837l.17-.085a1.1,1.1,0,0,0,.578-.771,13.161,13.161,0,0,0-.147-1.983,2.658,2.658,0,0,0-1.719-1.9.726.726,0,0,0-.276-.062c-.012.012-.243.484-.51,1.05s-.5,1.035-.51,1.047a3.518,3.518,0,0,1-.123-.628c-.053-.361-.1-.672-.111-.692s.021-.035.094-.035c.188,0,.223-.067.223-.434,0-.449.023-.428-.548-.44A1.575,1.575,0,0,0,323.332-168.825Z" transform="translate(-310.608 -290.49)"/></g></svg>