<svg xmlns="http://www.w3.org/2000/svg" width="16.838" height="14.856" viewBox="0 0 16.838 14.856"><defs><style>.a{fill:#040f4f;}</style></defs><g transform="translate(0 462.044)"><path class="a" d="M128.131-461.991a5.111,5.111,0,0,0-1.347.45,4.464,4.464,0,0,0-2.289,3.035,5.284,5.284,0,0,0-.019,1.714,4.4,4.4,0,0,0,1.186,2.26,4.395,4.395,0,0,0,2.389,1.286,5.282,5.282,0,0,0,1.575,0,4.44,4.44,0,0,0,2.289-1.19,4.429,4.429,0,0,0,1.286-2.36,5.477,5.477,0,0,0-.019-1.714A4.452,4.452,0,0,0,128.131-461.991Z" transform="translate(-120.414 0)"/><path class="a" d="M4.453-185.647a6.239,6.239,0,0,0-2.106.923,6.224,6.224,0,0,0-1.669,1.891A5.524,5.524,0,0,0,0-180.3c0,.318.042.428.193.518.084.048.752.051,8.221.051,8.1,0,8.128,0,8.234-.064.186-.116.215-.235.17-.756a5.58,5.58,0,0,0-.9-2.653,5.583,5.583,0,0,0-3.508-2.411c-.511-.1-.559-.1-.907.135a5.934,5.934,0,0,1-2.029.836,4.3,4.3,0,0,1-1.055.074,4.432,4.432,0,0,1-1.048-.071,5.856,5.856,0,0,1-2.019-.836A.863.863,0,0,0,4.453-185.647Z" transform="translate(0 -267.457)"/></g></svg>