<svg xmlns="http://www.w3.org/2000/svg" width="16.152" height="16.168" viewBox="0 0 16.152 16.168"><defs><style>.a{fill:#040f4f;}</style></defs><g transform="translate(-0.092 450.426)"><path class="a" d="M3.208-450.41c-.327.054-.485.183-1.51,1.218-.543.546-1.035,1.064-1.1,1.154a3.208,3.208,0,0,0-.41.87,5.513,5.513,0,0,0-.068,1.66,10.466,10.466,0,0,0,1.786,4.259,16.456,16.456,0,0,0,2.221,2.728,16.829,16.829,0,0,0,2.875,2.4,11.7,11.7,0,0,0,3.343,1.632,4.9,4.9,0,0,0,1.707.234,2.547,2.547,0,0,0,.981-.1c.694-.212.891-.363,2.077-1.56,1.118-1.129,1.129-1.143,1.129-1.664,0-.554-.025-.589-1.193-1.754s-1.186-1.175-1.718-1.175c-.514,0-.6.054-1.47.913-.665.658-.737.719-.917.773a3.059,3.059,0,0,1-2.034-.428c-2.261-1.15-4.3-3.738-4.295-5.463,0-.485.029-.528.845-1.348.841-.845.9-.942.9-1.456a.834.834,0,0,0-.1-.5,23.045,23.045,0,0,0-2.185-2.218A1.279,1.279,0,0,0,3.208-450.41Z" transform="translate(0 0)"/></g></svg>