<svg xmlns="http://www.w3.org/2000/svg" width="13.555" height="18.475" viewBox="0 0 13.555 18.475"><defs><style>.a{fill:#040f4f;}</style></defs><g transform="translate(-0.071 569.875)"><path class="a" d="M49.943-569.844a5.685,5.685,0,0,0-2.42,1,7.064,7.064,0,0,0-1.165,1.2,5.681,5.681,0,0,0-.876,2.024,5.907,5.907,0,0,0-.016,1.8,20.045,20.045,0,0,0,2.271,5.012c.775,1.333,2.271,3.659,2.475,3.851a.775.775,0,0,0,1,0c.146-.14,1.1-1.583,1.81-2.748a23.066,23.066,0,0,0,2.9-6.069,4.922,4.922,0,0,0-.285-2.8,5.346,5.346,0,0,0-2.861-2.913,5.927,5.927,0,0,0-1.327-.367A8.982,8.982,0,0,0,49.943-569.844Zm1.369,2.9a3.484,3.484,0,0,1,.5.2,1.788,1.788,0,0,1,.616.461,2.248,2.248,0,0,1,.714,1.44,2.453,2.453,0,0,1-.694,1.989,2.516,2.516,0,0,1-1.885.714,2.446,2.446,0,0,1-2.3-2.42,2.218,2.218,0,0,1,.26-1.1,1.736,1.736,0,0,1,.461-.616,2.3,2.3,0,0,1,1.268-.7A2.968,2.968,0,0,1,51.311-566.947Z" transform="translate(-43.863 0)"/><path class="a" d="M2.89-179.8a5.165,5.165,0,0,0-2.225,1.2,1.918,1.918,0,0,0-.4.529,1.653,1.653,0,0,0-.195.95A1.828,1.828,0,0,0,.7-175.8a7.655,7.655,0,0,0,4.428,1.661,23.4,23.4,0,0,0,3.439,0A7.655,7.655,0,0,0,13-175.8a1.828,1.828,0,0,0,.626-1.314,1.653,1.653,0,0,0-.195-.95,3.664,3.664,0,0,0-2-1.515A7.907,7.907,0,0,0,10.4-179.9c0,.007-.071.11-.146.237s-.24.383-.363.574a1.663,1.663,0,0,0-.208.376.315.315,0,0,0,.143.052,8.725,8.725,0,0,1,1.278.425c.6.263,1.087.655,1.145.924.065.3-.3.694-.941,1.012a9.233,9.233,0,0,1-2.968.795,19.974,19.974,0,0,1-2.855.016,6.81,6.81,0,0,1-3.831-1.327c-.253-.269-.276-.464-.091-.717a4.494,4.494,0,0,1,2.122-1.077,2.141,2.141,0,0,0,.321-.1,1.552,1.552,0,0,0-.23-.425c-.143-.221-.308-.483-.37-.587s-.123-.185-.143-.182S3.079-179.854,2.89-179.8Z" transform="translate(0 -377.322)"/></g></svg>